<svg xmlns="http://www.w3.org/2000/svg" viewBox="0 0 39.36 64"><defs><style>.cls-1{fill:#f31313;}</style></defs><g id="Layer_2" data-name="Layer 2"><g id="Layer_1-2" data-name="Layer 1"><path class="cls-1" d="M39.36,60.46A3.36,3.36,0,0,1,38,63.52a2.23,2.23,0,0,1-3.07-.28A16.65,16.65,0,0,1,33,60.45Q17.57,34.42,2.15,8.39c-.44-.74-.86-1.5-1.31-2.24C-.29,4.26-.37,2.4,1.18.86s3-.89,4.1.93C7.51,5.47,9.7,9.22,11.91,12.93L37.72,56.39C38.46,57.62,39.33,58.75,39.36,60.46Z"/><path class="cls-1" d="M.15,40.77V22.52c0-2.61.53-4.81,2.93-4.81S5.89,20,5.89,22.59q0,18.26,0,36.51c0,2.61-.41,4.84-2.87,4.8S.14,61.64.15,59Q.17,49.92.15,40.77Z"/><path class="cls-1" d="M39.33,23.44c0,5.78,0,11.54,0,17.3,0,2.65-.56,4.92-2.85,4.94s-2.89-2.21-2.89-4.87q0-18,0-36c0-2.69.67-4.78,3-4.67,2.15.1,2.73,2.16,2.73,4.61Z"/></g></g></svg>