<svg xmlns="http://www.w3.org/2000/svg" viewBox="0 0 610.69 221.32"><defs><style>.cls-1{fill:#fdfdfe;}.cls-2{fill:#fdfdfd;}.cls-3{fill:#fff;}</style></defs><g id="Layer_2" data-name="Layer 2"><g id="Layer_1-2" data-name="Layer 1"><path class="cls-1" d="M363.12,63.91c-4.63,10.81-9.68,21.37-13.76,32.52-3.13,8.56-7.51,11.4-14.74,11.35-6.9,0-10.72-3.36-13.65-11C317,86.16,312.21,76,304.5,66c0,13.93-.5,27.89.15,41.77.53,11.29-3.39,13.2-11.1,13.45-8.31.26-10.73-3.17-10.55-13.77.5-29.69,0-59.41.35-89.1.07-6-3.68-16,4.81-17,7.7-.88,16.41-4.36,21.61,9.37C317.07,30,325.92,48.27,335,69.05c8.91-20.32,17.76-38,24.63-57,5.22-14.37,14-12,22.28-10.76,8.93,1.34,5.32,11.75,5.4,18.33.37,28.62-.07,57.25.28,85.87.13,10.14-1,15.8-10.64,15.78-9.12,0-11.49-4-11-15,.66-13.79.16-27.68.16-41.52Z"/><path class="cls-2" d="M587.93,74.59c0-23.26.51-41.49-.19-59.63C587.28,3,591.08.53,599.44.55c8.14,0,11,3.23,10.83,13.94-.47,29.14,0,58.31-.31,87.45-.07,6.31,3.34,16.27-4,18.07s-15.56,4.19-22.12-5.48C569.29,93,554.19,72.11,536.34,46.74c0,22.22-.72,40.08.23,57.79.77,14.32-3.79,17.4-13.74,16.65-7-.52-8.25-4.26-8.2-12,.22-29.69-.11-59.38.24-89.07C515,13.79,511.42,4,518.53,1.84,525.8-.36,534-2,540.5,7.66c11.71,17.61,24,34.53,36.16,51.69C579.42,63.26,582.31,67,587.93,74.59Z"/><path class="cls-2" d="M216.61.87C189.4.76,168,27.21,167.93,61s21.08,60,48.61,59.88c27.23-.08,48.57-26.93,48.18-60.6C264.34,27.34,243,1,216.61.87Zm.06,93.9c-13.71.52-25.95-14.35-26.51-32.23-.59-18.7,11-34.94,25.41-35.47,13.29-.5,26,14.92,26.63,32.42C242.9,77.81,231,94.22,216.67,94.77Z"/><path class="cls-2" d="M495.77,105.91Q480,60.09,465.67,13.4C462.74,3.88,458.83.52,450.9.49c-7.74,0-11,4.07-13.66,12.62C427.7,43.61,417.42,73.73,408,104.3c-1.41,4.58-8.48,12.65-.36,15.51,6,2.11,16.72,7.07,19.08-6.71,3.61-21,14-22,27.66-22,10.9.06,17.48,3.29,19.76,17.47,1.48,9.18,5.4,14.44,13.09,12C497.55,122.64,500.23,118.84,495.77,105.91ZM457,64.82c-2,3.23-10.88,3.73-12.3-.77-2.59-8.17,3.57-14.86,7-22.14C454,50.21,461.94,56.71,457,64.82Z"/><path class="cls-3" d="M136.13,209.06c.05,4.75-1.5,8.53-4.75,10.58-3.56,2.24-7.47,2.52-10.63-.95a58.23,58.23,0,0,1-6.62-9.65q-53.37-90-106.67-180c-1.52-2.57-3-5.2-4.53-7.75C-1,14.73-1.28,8.31,4.1,3S14.43-.1,18.28,6.21C26,18.93,33.56,31.88,41.19,44.72Q85.82,119.87,130.43,195C133,199.26,136,203.16,136.13,209.06Z"/><path class="cls-3" d="M.55,141q0-31.56,0-63.13c0-9,1.82-16.63,10.12-16.62,8.52,0,9.72,8,9.71,16.87q-.07,63.12,0,126.26c0,9-1.41,16.73-9.92,16.59S.51,213.14.54,204.18Q.6,172.61.55,141Z"/><path class="cls-3" d="M136,81.06c0,20-.09,39.9,0,59.84.06,9.14-1.94,17-9.84,17.08s-10-7.66-10-16.85q.12-62.26,0-124.54c0-9.31,2.31-16.55,10.41-16.17C134,.76,136,7.89,136,16.36Q136,48.72,136,81.06Z"/><path class="cls-3" d="M194.31,165.72c-4.63.53-5.18.91-5.18,6.25v21.87c0,7.73-.92,13.27-6.34,17.71a21.36,21.36,0,0,1-7.19,3.81l-1-2.24a10,10,0,0,0,6.19-8,74.88,74.88,0,0,0,.68-12.16V172c0-5.34-.61-5.78-5.62-6.25v-2.15h18.48Z"/><path class="cls-3" d="M224.5,204.89v-2.15c4.05-.55,4.23-1.23,3.34-3.85-.71-2.11-1.81-5.08-2.9-8.13H212.08c-.81,2.28-1.72,4.72-2.45,6.91-1.36,4.05,0,4.56,5,5.07v2.15H199.32v-2.15c4-.51,5-1,7.21-6.51l13.19-33,2.7-.51c4.05,11,8.39,22.55,12.48,33.3,2.24,5.78,2.81,6.25,7.08,6.76v2.15Zm-5.86-31.61c-1.91,4.89-3.83,9.68-5.53,14.46h10.73Z"/><path class="cls-3" d="M302.75,165.72c-4.54.6-5.3,1.39-7.05,6.61-1.81,5.4-6.69,20.85-10.52,33.26h-3.07c-3.26-9.42-7.11-19.83-10.62-29.32-3.44,10.06-6.82,19.9-9.92,29.32h-3.13c-2.76-9.65-6.68-22.37-10.19-33.57-1.61-5-2.48-5.89-6.44-6.3v-2.15h18v2.15c-4.74.47-4.87,1.33-4,4.59,2.23,7.76,4.57,15.55,6.84,23.19,3.33-9.36,6.65-19.47,9.69-29.52h2.9c3.52,10.1,7.12,19.77,10.68,29.59,2.46-7.42,5.71-18.28,6.78-22.57.91-3.73.32-4.77-5.12-5.28v-2.15h15.18Z"/><path class="cls-3" d="M326.14,204.89v-2.15c4.05-.55,4.23-1.23,3.34-3.85-.71-2.11-1.81-5.08-2.9-8.13H313.72c-.81,2.28-1.72,4.72-2.45,6.91-1.36,4.05,0,4.56,5,5.07v2.15H301v-2.15c4-.51,5-1,7.21-6.51l13.2-33,2.69-.51c4.05,11,8.39,22.55,12.48,33.3,2.24,5.78,2.81,6.25,7.08,6.76v2.15Zm-5.86-31.61c-1.91,4.89-3.82,9.68-5.53,14.46h10.74Z"/><path class="cls-3" d="M369.67,163.57c8.43,0,14.29,1.74,18.32,5.53a18.2,18.2,0,0,1,5.61,13.77c0,7.36-3.06,13.1-8,16.79s-10.83,5.23-18.28,5.23H350.8v-2.15c5.06-.43,5.52-1,5.52-6.21V172c0-5.38-.73-5.8-5.52-6.23v-2.15ZM364,196.06c0,4.61,1.45,6.06,6.14,6.06,9.58,0,14.85-6.62,14.85-18.32,0-6.35-1.9-11.63-5.56-14.47-2.76-2.38-6.2-3.2-10.45-3.2-2.53,0-3.77.46-4.24.89s-.74,1.45-.74,3.51Z"/></g></g></svg>